<svg xmlns="http://www.w3.org/2000/svg" xmlns:svg="http://www.w3.org/2000/svg" id="svg8" width="210mm" height="297mm" version="1.1" viewBox="0 0 210 297"><defs id="defs2"><marker style="overflow:visible" id="marker15253" orient="auto" refX="0" refY="0"><path style="fill:#000;fill-opacity:1;fill-rule:evenodd;stroke:#000;stroke-width:1.00000003pt;stroke-opacity:1" id="path15251" d="M 0,0 5,-5 -12.5,0 5,5 Z" transform="matrix(-0.8,0,0,-0.8,-10,0)"/></marker><marker id="Arrow1Lend" orient="auto" refX="0" refY="0" style="overflow:visible"><path id="path4598" d="M 0.0,0.0 L 5.0,-5.0 L -12.5,0.0 L 5.0,5.0 L 0.0,0.0 z" transform="scale(0.8) rotate(180) translate(12.5,0)" style="fill-rule:evenodd;stroke:#000;stroke-width:1pt;stroke-opacity:1;fill:#000;fill-opacity:1"/></marker><marker id="Arrow1Lstart" orient="auto" refX="0" refY="0" style="overflow:visible"><path id="path4595" d="M 0.0,0.0 L 5.0,-5.0 L -12.5,0.0 L 5.0,5.0 L 0.0,0.0 z" transform="scale(0.8) translate(12.5,0)" style="fill-rule:evenodd;stroke:#000;stroke-width:1pt;stroke-opacity:1;fill:#000;fill-opacity:1"/></marker><marker id="Arrow1Lend-2" orient="auto" refX="0" refY="0" style="overflow:visible"><path id="path4598-7" d="M 0,0 5,-5 -12.5,0 5,5 Z" transform="matrix(-0.8,0,0,-0.8,-10,0)" style="fill:#000;fill-opacity:1;fill-rule:evenodd;stroke:#000;stroke-width:1.00000003pt;stroke-opacity:1"/></marker><marker id="Arrow1Lend-6" orient="auto" refX="0" refY="0" style="overflow:visible"><path id="path4598-0" d="M 0,0 5,-5 -12.5,0 5,5 Z" transform="matrix(-0.8,0,0,-0.8,-10,0)" style="fill:#000;fill-opacity:1;fill-rule:evenodd;stroke:#000;stroke-width:1.00000003pt;stroke-opacity:1"/></marker><marker id="Arrow1Lend-2-2" orient="auto" refX="0" refY="0" style="overflow:visible"><path id="path4598-7-6" d="M 0,0 5,-5 -12.5,0 5,5 Z" transform="matrix(-0.8,0,0,-0.8,-10,0)" style="fill:#000;fill-opacity:1;fill-rule:evenodd;stroke:#000;stroke-width:1.00000003pt;stroke-opacity:1"/></marker></defs><metadata id="metadata5"/><g id="layer1"><rect style="fill:#fff;fill-opacity:1;stroke:#000;stroke-width:0;stroke-miterlimit:4;stroke-dasharray:none;stroke-opacity:1" id="rect16044" width="184.976" height="213.098" x="15.321" y="37.043"/><rect style="fill:none;stroke:#000;stroke-width:1;stroke-miterlimit:4;stroke-dasharray:none;stroke-opacity:1" id="rect4524" width="64.467" height="26.252" x="18.325" y="132.804"/><text style="font-style:normal;font-weight:400;font-size:10.58333302px;line-height:1.25;font-family:sans-serif;letter-spacing:0;word-spacing:0;fill:#000;fill-opacity:1;stroke:none;stroke-width:.26458332" id="text4528" x="20.165" y="131.334" xml:space="preserve"><tspan id="tspan4526" x="20.165" y="131.334" style="stroke-width:.26458332">Module1</tspan></text><rect style="fill:none;stroke:#000;stroke-width:1;stroke-miterlimit:4;stroke-dasharray:none;stroke-opacity:1" id="rect4524-3" width="68.688" height="26.497" x="124.877" y="132.676"/><text style="font-style:normal;font-weight:400;font-size:10.58333302px;line-height:1.25;font-family:sans-serif;letter-spacing:0;word-spacing:0;fill:#000;fill-opacity:1;stroke:none;stroke-width:.26458332" id="text4528-6" x="126.111" y="130.677" xml:space="preserve"><tspan id="tspan4526-7" x="126.111" y="130.677" style="stroke-width:.26458332">Module2</tspan></text><text style="font-style:normal;font-weight:400;font-size:10.58333302px;line-height:1.25;font-family:sans-serif;letter-spacing:0;word-spacing:0;fill:#000;fill-opacity:1;stroke:none;stroke-width:.26458332" id="text4553" x="20.072" y="143.833" xml:space="preserve"><tspan id="tspan4551" x="20.072" y="143.833" style="stroke-width:.26458332">.Build.cs</tspan></text><text style="font-style:normal;font-weight:400;font-size:10.58333302px;line-height:1.25;font-family:sans-serif;letter-spacing:0;word-spacing:0;fill:#000;fill-opacity:1;stroke:none;stroke-width:.26458332" id="text4553-5" x="126.018" y="144.112" xml:space="preserve"><tspan id="tspan4551-3" x="126.018" y="144.112" style="stroke-width:.26458332">.Build.cs</tspan></text><text style="font-style:normal;font-weight:400;font-size:10.58333302px;line-height:1.25;font-family:sans-serif;letter-spacing:0;word-spacing:0;fill:#000;fill-opacity:1;stroke:none;stroke-width:.26458332" id="text4553-56" x="20.506" y="156.332" xml:space="preserve"><tspan id="tspan4551-2" x="20.506" y="156.332" style="stroke-width:.26458332">Source files</tspan></text><text style="font-style:normal;font-weight:400;font-size:10.58333302px;line-height:1.25;font-family:sans-serif;letter-spacing:0;word-spacing:0;fill:#000;fill-opacity:1;stroke:none;stroke-width:.26458332" id="text4553-9" x="126.452" y="157.019" xml:space="preserve"><tspan id="tspan4551-1" x="126.452" y="157.019" style="stroke-width:.26458332">Source files</tspan></text><text style="font-style:normal;font-weight:400;font-size:10.58333302px;line-height:1.25;font-family:sans-serif;letter-spacing:0;word-spacing:0;fill:#000;fill-opacity:1;stroke:none;stroke-width:.26458332" id="text4591" x="74.251" y="97.126" xml:space="preserve"><tspan id="tspan4589" x="74.251" y="97.126" style="stroke-width:.26458332">.Target.cs</tspan></text><path style="fill:none;stroke:#000;stroke-width:.26458332px;stroke-linecap:butt;stroke-linejoin:miter;stroke-opacity:1;marker-end:url(#Arrow1Lend)" id="path4593" d="m 100.73558,99.626967 c 0.0973,2.975133 0.53236,13.424403 1.37855,22.286273 0.55578,5.82055 -18.314089,22.3451 -18.314089,22.3451"/><path style="fill:none;stroke:#000;stroke-width:.26458332px;stroke-linecap:butt;stroke-linejoin:miter;stroke-opacity:1;marker-end:url(#Arrow1Lend-2)" id="path4593-0" d="m 100.73391,99.621132 c 0.16488,2.738828 0.27511,11.571718 1.61341,21.983818 1.33829,10.41211 21.74169,21.98258 21.74169,21.98258"/><text style="font-style:normal;font-weight:400;font-size:10.58333302px;line-height:1.25;font-family:sans-serif;letter-spacing:0;word-spacing:0;fill:#000;fill-opacity:1;stroke:none;stroke-width:.26458332" id="text15241" x="24.417" y="52.26" xml:space="preserve"><tspan id="tspan15239" x="24.417" y="52.26" style="stroke-width:.26458332">CMakeLists.txt/Makefile/.sln</tspan></text><path style="fill:none;stroke:#000;stroke-width:.26458332px;stroke-linecap:butt;stroke-linejoin:miter;stroke-opacity:1;marker-end:url(#Arrow1Lstart)" id="path15243" d="M 97.885922,58.308036 C 97.696935,87.979164 97.696935,87.790178 97.696935,87.790178"/><text style="font-style:normal;font-weight:400;font-size:10.58333302px;line-height:1.25;font-family:sans-serif;letter-spacing:0;word-spacing:0;fill:#000;fill-opacity:1;stroke:none;stroke-width:.26458332" id="text16072" x="78.526" y="198.914" xml:space="preserve"><tspan id="tspan16070" x="78.526" y="198.914" style="stroke-width:.26458332">.so/.dll</tspan></text><path style="fill:none;stroke:#000;stroke-width:.26458332px;stroke-linecap:butt;stroke-linejoin:miter;stroke-opacity:1;marker-end:url(#Arrow1Lend-6)" id="path4593-6" d="m 83.138263,146.08328 c 18.989177,-0.016 17.062797,13.43904 17.237847,21.343 l 0.49564,22.37823"/><path style="fill:none;stroke:#000;stroke-width:.26458332px;stroke-linecap:butt;stroke-linejoin:miter;stroke-opacity:1;marker-end:url(#Arrow1Lend-2-2)" id="path4593-0-1" d="m 124.98322,144.80223 c -24.41098,0.73507 -24.72209,14.89681 -24.62042,22.57278 l 0.53653,22.4295"/></g></svg>